<svg width="600" height="80" viewBox="0 0 600 80" fill="none" xmlns="http://www.w3.org/2000/svg">
<path d="M152.409 19.3628V60.3869H142.416V19.3628H152.409Z" fill="#1B1B1B"/>
<path d="M196.35 60.3869H186.357L169.644 35.0828V60.3869H159.651V19.3628H169.644L186.357 44.7837V19.3628H196.35V60.3869Z" fill="#1B1B1B"/>
<path d="M230.3 19.3628V27.3689H213.587V36.0179H226.093V43.7902H213.587V60.3869H203.594V19.3628H230.3Z" fill="#1B1B1B"/>
<path d="M254.954 60.796C251.097 60.796 247.552 59.8999 244.319 58.1078C241.124 56.3156 238.572 53.8222 236.663 50.6276C234.793 47.394 233.858 43.7708 233.858 39.7579C233.858 35.7451 234.793 32.1414 236.663 28.9467C238.572 25.7521 241.124 23.2587 244.319 21.4666C247.552 19.6744 251.097 18.7784 254.954 18.7784C258.811 18.7784 262.337 19.6744 265.532 21.4666C268.765 23.2587 271.298 25.7521 273.129 28.9467C274.999 32.1414 275.934 35.7451 275.934 39.7579C275.934 43.7708 274.999 47.394 273.129 50.6276C271.259 53.8222 268.726 56.3156 265.532 58.1078C262.337 59.8999 258.811 60.796 254.954 60.796ZM254.954 51.6795C258.227 51.6795 260.837 50.5886 262.785 48.4069C264.772 46.2252 265.766 43.3422 265.766 39.7579C265.766 36.1347 264.772 33.2517 262.785 31.109C260.837 28.9273 258.227 27.8364 254.954 27.8364C251.643 27.8364 248.994 28.9078 247.007 31.0505C245.059 33.1933 244.085 36.0958 244.085 39.7579C244.085 43.3812 245.059 46.2836 247.007 48.4653C248.994 50.6081 251.643 51.6795 254.954 51.6795Z" fill="#1B1B1B"/>
<path d="M296.337 60.796C293.337 60.796 290.649 60.309 288.272 59.335C285.896 58.361 283.987 56.9195 282.545 55.0105C281.143 53.1015 280.403 50.8029 280.325 48.1147H290.961C291.116 49.6341 291.642 50.8029 292.538 51.621C293.434 52.4002 294.603 52.7898 296.045 52.7898C297.525 52.7898 298.694 52.4587 299.551 51.7964C300.408 51.0951 300.837 50.1406 300.837 48.9329C300.837 47.9199 300.486 47.0823 299.785 46.42C299.122 45.7577 298.285 45.2122 297.272 44.7837C296.298 44.3551 294.895 43.8681 293.064 43.3227C290.415 42.5046 288.253 41.6864 286.578 40.8683C284.902 40.0501 283.461 38.8424 282.253 37.2451C281.045 35.6477 280.442 33.5634 280.442 30.9921C280.442 27.1741 281.825 24.1937 284.591 22.051C287.357 19.8692 290.961 18.7784 295.402 18.7784C299.921 18.7784 303.564 19.8692 306.33 22.051C309.096 24.1937 310.577 27.1936 310.771 31.0505H299.96C299.882 29.7259 299.395 28.6935 298.499 27.9533C297.603 27.1741 296.454 26.7845 295.051 26.7845C293.844 26.7845 292.87 27.1157 292.129 27.778C291.389 28.4013 291.019 29.3169 291.019 30.5246C291.019 31.8492 291.642 32.8816 292.889 33.6219C294.136 34.3621 296.084 35.1607 298.733 36.0179C301.382 36.9139 303.525 37.771 305.161 38.5892C306.836 39.4073 308.278 40.5956 309.486 42.1539C310.693 43.7123 311.297 45.7187 311.297 48.1731C311.297 50.5107 310.693 52.634 309.486 54.543C308.317 56.452 306.603 57.9714 304.343 59.1012C302.083 60.231 299.415 60.796 296.337 60.796Z" fill="#1B1B1B"/>
<path d="M336.849 60.796C332.992 60.796 329.447 59.8999 326.213 58.1078C323.018 56.3156 320.466 53.8222 318.557 50.6276C316.687 47.394 315.752 43.7708 315.752 39.7579C315.752 35.7451 316.687 32.1414 318.557 28.9467C320.466 25.7521 323.018 23.2587 326.213 21.4666C329.447 19.6744 332.992 18.7784 336.849 18.7784C340.706 18.7784 344.232 19.6744 347.426 21.4666C350.66 23.2587 353.192 25.7521 355.023 28.9467C356.893 32.1414 357.828 35.7451 357.828 39.7579C357.828 43.7708 356.893 47.394 355.023 50.6276C353.153 53.8222 350.621 56.3156 347.426 58.1078C344.232 59.8999 340.706 60.796 336.849 60.796ZM336.849 51.6795C340.121 51.6795 342.732 50.5886 344.68 48.4069C346.667 46.2252 347.66 43.3422 347.66 39.7579C347.66 36.1347 346.667 33.2517 344.68 31.109C342.732 28.9273 340.121 27.8364 336.849 27.8364C333.537 27.8364 330.888 28.9078 328.901 31.0505C326.953 33.1933 325.979 36.0958 325.979 39.7579C325.979 43.3812 326.953 46.2836 328.901 48.4653C330.888 50.6081 333.537 51.6795 336.849 51.6795Z" fill="#1B1B1B"/>
<path d="M361.693 39.8164C361.693 35.7646 362.57 32.1609 364.323 29.0052C366.076 25.8105 368.511 23.3366 371.628 21.5834C374.783 19.7913 378.348 18.8952 382.322 18.8952C387.192 18.8952 391.361 20.1809 394.828 22.7522C398.295 25.3235 400.613 28.8299 401.782 33.2712H390.796C389.978 31.557 388.809 30.2519 387.289 29.3558C385.809 28.4598 384.114 28.0117 382.205 28.0117C379.127 28.0117 376.634 29.0831 374.725 31.2259C372.816 33.3686 371.861 36.2321 371.861 39.8164C371.861 43.4006 372.816 46.2641 374.725 48.4069C376.634 50.5497 379.127 51.621 382.205 51.621C384.114 51.621 385.809 51.173 387.289 50.2769C388.809 49.3809 389.978 48.0757 390.796 46.3615H401.782C400.613 50.8029 398.295 54.3092 394.828 56.8805C391.361 59.4129 387.192 60.6791 382.322 60.6791C378.348 60.6791 374.783 59.8025 371.628 58.0493C368.511 56.2572 366.076 53.7833 364.323 50.6276C362.57 47.4719 361.693 43.8681 361.693 39.8164Z" fill="#1B1B1B"/>
<path d="M417.895 19.3628V60.3869H407.902V19.3628H417.895Z" fill="#1B1B1B"/>
<path d="M435.13 27.3689V35.6672H448.512V43.3812H435.13V52.3807H450.265V60.3869H425.137V19.3628H450.265V27.3689H435.13Z" fill="#1B1B1B"/>
<path d="M486.265 19.3628V27.3689H475.395V60.3869H465.402V27.3689H454.532V19.3628H486.265Z" fill="#1B1B1B"/>
<path d="M501.273 27.3689V35.6672H514.656V43.3812H501.273V52.3807H516.409V60.3869H491.28V19.3628H516.409V27.3689H501.273Z" fill="#1B1B1B"/>
<path d="M524.114 60.6596C523.091 60.6596 522.25 60.3642 521.591 59.7733C520.955 59.1597 520.637 58.4097 520.637 57.5234C520.637 56.6143 520.955 55.853 521.591 55.2394C522.25 54.6258 523.091 54.319 524.114 54.319C525.114 54.319 525.932 54.6258 526.568 55.2394C527.227 55.853 527.557 56.6143 527.557 57.5234C527.557 58.4097 527.227 59.1597 526.568 59.7733C525.932 60.3642 525.114 60.6596 524.114 60.6596Z" fill="#1B1B1B"/>
<path d="M551.172 44.1603C551.172 45.5466 550.853 46.8193 550.217 47.9784C549.581 49.1147 548.603 50.0351 547.285 50.7396C545.967 51.4441 544.331 51.7964 542.376 51.7964H538.763V60.3869H532.934V36.4561H542.376C544.285 36.4561 545.899 36.7857 547.217 37.4447C548.535 38.1038 549.524 39.0128 550.183 40.1719C550.842 41.3309 551.172 42.6604 551.172 44.1603ZM541.933 47.1602C543.047 47.1602 543.876 46.8989 544.422 46.3761C544.967 45.8534 545.24 45.1148 545.24 44.1603C545.24 43.2058 544.967 42.4672 544.422 41.9445C543.876 41.4218 543.047 41.1605 541.933 41.1605H538.763V47.1602H541.933Z" fill="#2F9FF8"/>
<path d="M566.41 60.3869L561.433 51.3532H560.036V60.3869H554.206V36.4561H563.99C565.876 36.4561 567.478 36.7857 568.797 37.4447C570.137 38.1038 571.137 39.0128 571.796 40.1719C572.455 41.3082 572.785 42.5809 572.785 43.9899C572.785 45.5807 572.33 47.0011 571.421 48.2511C570.535 49.501 569.217 50.3873 567.467 50.91L572.99 60.3869H566.41ZM560.036 47.2284H563.649C564.717 47.2284 565.513 46.967 566.035 46.4443C566.581 45.9216 566.853 45.183 566.853 44.2285C566.853 43.3195 566.581 42.6036 566.035 42.0809C565.513 41.5582 564.717 41.2968 563.649 41.2968H560.036V47.2284Z" fill="#2F9FF8"/>
<path d="M587.762 60.6255C585.512 60.6255 583.444 60.1028 581.558 59.0574C579.694 58.012 578.206 56.5575 577.092 54.694C576.001 52.8077 575.456 50.6941 575.456 48.3533C575.456 46.0125 576.001 43.9104 577.092 42.0468C578.206 40.1832 579.694 38.7288 581.558 37.6834C583.444 36.638 585.512 36.1152 587.762 36.1152C590.012 36.1152 592.069 36.638 593.932 37.6834C595.818 38.7288 597.296 40.1832 598.364 42.0468C599.455 43.9104 600 46.0125 600 48.3533C600 50.6941 599.455 52.8077 598.364 54.694C597.273 56.5575 595.796 58.012 593.932 59.0574C592.069 60.1028 590.012 60.6255 587.762 60.6255ZM587.762 55.3076C589.671 55.3076 591.194 54.6712 592.33 53.3986C593.489 52.1259 594.068 50.4442 594.068 48.3533C594.068 46.2398 593.489 44.5581 592.33 43.3081C591.194 42.0354 589.671 41.3991 587.762 41.3991C585.83 41.3991 584.285 42.0241 583.126 43.274C581.99 44.524 581.421 46.2171 581.421 48.3533C581.421 50.4669 581.99 52.16 583.126 53.4327C584.285 54.6826 585.83 55.3076 587.762 55.3076Z" fill="#2F9FF8"/>
<path fill-rule="evenodd" clip-rule="evenodd" d="M84.0782 32.0054L80.761 34.5704L64.5492 47.1053L72.3601 49.179L69.2439 61.6368L63.8078 65.1176H63.8057L57.4992 69.154H57.4966L45.0657 77.1115C44.7251 77.0215 44.3846 76.9305 44.0443 76.8363C43.8369 76.7781 43.6275 76.7188 43.4179 76.658C43.3658 76.6453 43.3116 76.6289 43.2599 76.6136C43.0395 76.5501 42.816 76.4844 42.5949 76.4199C42.3539 76.3474 42.1152 76.2749 41.8737 76.2003C41.6348 76.1267 41.3959 76.0521 41.1569 75.9754C41.0149 75.9304 40.873 75.8854 40.7311 75.8378C40.5123 75.768 40.294 75.696 40.0751 75.624C39.9693 75.588 39.8634 75.5521 39.7572 75.5155C39.6151 75.4685 39.4735 75.4187 39.3313 75.369C39.2255 75.333 39.1192 75.297 39.0136 75.261L38.9278 75.5944L38.8309 75.1954V75.1933L28.0498 30.9058L25.7033 21.2675L84.0782 32.0054Z" fill="#2C8FCD"/>
<path fill-rule="evenodd" clip-rule="evenodd" d="M108.516 36.5027L90.6836 47.9147L85.2724 34.8861L84.0776 32.0053L108.516 36.5027Z" fill="#E8E7E6"/>
<path fill-rule="evenodd" clip-rule="evenodd" d="M85.2724 34.8861L90.6836 47.9147L108.516 36.5027L85.2724 34.8861ZM80.761 34.5704L52.0072 32.571L49.7243 32.4138L40.0747 31.742L28.0498 30.9058L38.8309 75.1933V75.1954L38.9278 75.5944L39.0136 75.261C39.1192 75.297 39.2255 75.333 39.3313 75.369C39.4735 75.4187 39.6151 75.4685 39.7572 75.5155C39.8634 75.5521 39.9693 75.588 40.0751 75.624C40.294 75.696 40.5123 75.768 40.7311 75.8378C40.873 75.8854 41.0149 75.9304 41.1569 75.9754C41.3959 76.0521 41.6348 76.1267 41.8737 76.2003C42.1152 76.2749 42.3539 76.3474 42.5949 76.4199C42.816 76.4844 43.0395 76.5501 43.2599 76.6136C43.3116 76.6289 43.3658 76.6453 43.4179 76.658C43.6275 76.7188 43.8369 76.7781 44.0443 76.8363C44.3846 76.9305 44.7251 77.0215 45.0657 77.1115L57.4966 69.154H57.4992L63.8057 65.1176H63.8078L69.2439 61.6368L72.3601 49.179L64.5492 47.1053L80.761 34.5704Z" fill="#216C9A"/>
<path d="M113.627 35.9078L89.6349 51.2624L83.1273 35.592L69.5402 46.0983L75.0847 47.5697L71.2149 63.0523L48.0993 77.8464C47.9732 77.8168 47.8448 77.7877 47.7184 77.7607C47.4706 77.7041 47.225 77.6453 46.9793 77.5893C46.765 77.5374 46.5531 77.4877 46.3413 77.4358C46.2826 77.4226 46.2215 77.4072 46.1631 77.3908C45.976 77.3458 45.7887 77.2982 45.6039 77.2511C45.4239 77.2061 45.2435 77.1586 45.0657 77.1115C44.7251 77.0215 44.3846 76.9305 44.0443 76.8363C43.8369 76.7781 43.6275 76.7188 43.4179 76.658C43.3658 76.6453 43.3116 76.6289 43.2599 76.6136C43.0395 76.5501 42.816 76.4844 42.5949 76.4199C42.3539 76.3474 42.1152 76.2749 41.8737 76.2003C41.6348 76.1267 41.3959 76.0521 41.1569 75.9754C41.0149 75.9304 40.873 75.8854 40.7311 75.8378C40.5123 75.768 40.294 75.696 40.0751 75.624C39.9693 75.588 39.8634 75.5521 39.7572 75.5155C39.6151 75.4685 39.4735 75.4187 39.3313 75.369C39.2255 75.333 39.1192 75.297 39.0136 75.261L38.9278 75.5944L38.8309 75.1954C38.806 75.1864 38.7811 75.1774 38.7567 75.1689C38.443 75.0578 38.1319 74.9451 37.821 74.8302V9.27877L113.627 35.9078Z" fill="white"/>
<path d="M55.668 17.9354L40.0747 12.4579L40.0751 75.624C40.294 75.696 40.5123 75.768 40.7311 75.8378C40.873 75.8854 41.0149 75.9304 41.1569 75.9754C41.3959 76.0521 41.6348 76.1267 41.8737 76.2003C42.1152 76.2749 42.3539 76.3474 42.5949 76.4199C42.816 76.4844 43.0395 76.5501 43.2599 76.6136C43.3116 76.6289 43.3658 76.6453 43.4179 76.658C43.6275 76.7188 43.8369 76.7781 44.0443 76.8363C44.3846 76.9305 44.7251 77.0215 45.0657 77.1115L57.4966 69.154H57.4992L63.8057 65.1176H63.8078L69.2439 61.6368L72.3601 49.179L64.5492 47.1053L80.761 34.5704L84.0782 32.0054L85.2724 34.8861L90.6836 47.9147L108.516 36.5027L55.668 17.9354Z" fill="#2C8FCD"/>
<path fill-rule="evenodd" clip-rule="evenodd" d="M52.0072 32.571L44.2129 63.7522L43.2213 67.7204L41.1569 75.9754C41.0149 75.9304 40.873 75.8854 40.7311 75.8378C40.5123 75.768 40.294 75.696 40.0751 75.624L40.0747 31.742L49.7243 32.4138L52.0072 32.571Z" fill="#277CB0"/>
<path fill-rule="evenodd" clip-rule="evenodd" d="M112.769 29.3866L106.415 54.8074L102.469 70.5948V70.5974C102.373 70.645 102.278 70.6937 102.185 70.7434C102.04 70.8202 101.896 70.8948 101.75 70.9694C101.558 71.0678 101.365 71.1652 101.174 71.2615C100.721 71.4896 100.268 71.7129 99.8108 71.9309C99.1319 72.2552 98.4493 72.5722 97.7619 72.8781C97.4571 73.0135 97.1534 73.1463 96.8486 73.277C96.5157 73.422 96.1792 73.5612 95.8453 73.7014C95.5098 73.839 95.1733 73.9755 94.8357 74.1094C94.7796 74.1316 94.7235 74.1544 94.6663 74.1766C94.4139 74.2756 94.1615 74.375 93.907 74.4719C93.8398 74.4989 93.7726 74.5237 93.7043 74.5486C93.0646 74.7941 92.4195 75.0285 91.7708 75.2561C91.4258 75.3757 91.0808 75.4953 90.7336 75.6101C90.4447 75.7069 90.1569 75.8038 89.8653 75.8969C89.4594 76.0271 89.0525 76.1557 88.644 76.2795C88.2953 76.3858 87.9429 76.489 87.5894 76.5933C87.237 76.6943 86.8835 76.7938 86.53 76.8907C86.2057 76.9801 85.8776 77.0684 85.5511 77.1542C85.522 77.1611 85.4913 77.1701 85.4622 77.1764C85.1706 77.251 84.8806 77.3256 84.587 77.3981C84.4488 77.4309 84.3102 77.4648 84.17 77.4992C83.926 77.5579 83.6832 77.6161 83.4371 77.6722C83.3069 77.704 83.1762 77.7331 83.0424 77.7627C82.7725 77.8257 82.5021 77.8844 82.2317 77.9426C81.8682 78.022 81.5062 78.0966 81.1427 78.168C80.7903 78.2405 80.4394 78.3083 80.086 78.3739C80.014 78.3866 79.9394 78.4009 79.8653 78.4136C79.5626 78.4702 79.2605 78.5247 78.9583 78.5744C78.952 78.5765 78.9446 78.5765 78.9398 78.5787C78.6435 78.6305 78.3472 78.6776 78.0498 78.7247C78.0122 78.7316 77.9741 78.7385 77.9376 78.7432C77.7206 78.7771 77.5074 78.811 77.2904 78.8422C76.993 78.8877 76.6957 78.93 76.3983 78.9708C76.1395 79.0067 75.8797 79.0427 75.6204 79.0745C75.3093 79.1152 74.9987 79.1539 74.6875 79.1893C74.6827 79.1893 74.6753 79.1914 74.6716 79.1914C74.4594 79.2163 74.2478 79.239 74.0329 79.2618C73.4138 79.3295 72.7931 79.3883 72.1714 79.4417C71.8264 79.4713 71.4803 79.4983 71.1326 79.5211C71.1215 79.5232 71.112 79.5232 71.1056 79.5232C70.7294 79.5502 70.3548 79.5751 69.978 79.5952C69.688 79.6137 69.3965 79.6264 69.1065 79.6407C68.7678 79.6555 68.4297 79.6692 68.09 79.6809H68.0688C67.8826 79.6872 67.6974 79.6941 67.5132 79.6989C67.4767 79.6989 67.4402 79.701 67.4047 79.701C67.1179 79.7079 66.829 79.7148 66.5401 79.7169C66.1575 79.7238 65.7723 79.7259 65.3871 79.7259C65.1008 79.7259 64.814 79.7238 64.5288 79.7216C64.3494 79.719 64.1716 79.7169 63.9938 79.7121C63.717 79.71 63.4403 79.7031 63.1646 79.6941C62.5016 79.6767 61.8438 79.6518 61.1882 79.6179C61.1448 79.6158 61.0998 79.6137 61.057 79.6089C60.8538 79.5999 60.6511 79.5883 60.4484 79.5751C60.2701 79.5639 60.0923 79.5523 59.9145 79.5412C59.3642 79.5026 58.8144 79.4597 58.2688 79.41C58.1201 79.3989 57.9715 79.3856 57.8222 79.3703C57.5926 79.3496 57.3624 79.3269 57.1349 79.3047C56.919 79.2819 56.702 79.2592 56.4861 79.2322C56.1453 79.1962 55.8051 79.1554 55.4648 79.1131C55.3569 79.102 55.2463 79.0882 55.1378 79.0724C54.969 79.0496 54.7976 79.0274 54.6288 79.0046C54.0737 78.93 53.5197 78.8517 52.9699 78.7633C52.7331 78.7274 52.4959 78.6887 52.262 78.6506C52.2395 78.6464 52.2169 78.6411 52.194 78.6395C51.9484 78.5967 51.7028 78.5564 51.4573 78.5109C51.2048 78.4681 50.9542 78.4204 50.7043 78.376C50.0213 78.2495 49.3426 78.1146 48.6666 77.9675C48.4887 77.9315 48.3083 77.8939 48.1301 77.8532C48.1187 77.849 48.1097 77.8463 48.0985 77.8463C47.9724 77.8167 47.8439 77.7876 47.7176 77.7606C47.4698 77.704 47.2241 77.6452 46.9785 77.5891C46.7641 77.5373 46.5523 77.4875 46.3405 77.4357C46.2818 77.4225 46.2207 77.4071 46.1623 77.3907C45.9752 77.3457 45.7879 77.2981 45.6031 77.251C45.423 77.206 45.2427 77.1584 45.0648 77.1113C44.7243 77.0214 44.3838 76.9303 44.0434 76.8362C43.8361 76.7779 43.6266 76.7187 43.4171 76.6578C43.365 76.6451 43.3108 76.6287 43.2591 76.6134C43.0386 76.5499 42.8152 76.4843 42.594 76.4197C42.353 76.3472 42.1143 76.2747 41.8728 76.2001C41.634 76.1266 41.3951 76.0519 41.1561 75.9752C41.0141 75.9302 40.8721 75.8852 40.7303 75.8376C40.5114 75.7678 40.2932 75.6958 40.0743 75.6239C39.9684 75.5879 39.8625 75.5519 39.7563 75.5154C39.6143 75.4683 39.4726 75.4185 39.3305 75.3688C39.2247 75.3328 39.1184 75.2968 39.0128 75.2608L39.0127 75.2582L41.988 63.3596L49.7243 32.4138L57.827 0L89.8595 21.3551C89.9156 21.1137 89.9738 20.8736 90.0299 20.6346C90.3823 19.1668 90.7225 17.7527 91.0284 16.4445L91.8353 13.0127L112.769 29.3866Z" fill="white"/>
<path fill-rule="evenodd" clip-rule="evenodd" d="M110.23 30.2579L103.785 56.0358L99.8108 71.9309C99.1319 72.2552 98.4493 72.5722 97.7619 72.8781C97.4571 73.0135 97.1534 73.1463 96.8486 73.277C96.5157 73.422 96.1792 73.5612 95.8453 73.7014C95.5098 73.839 95.1733 73.9755 94.8357 74.1094C94.7796 74.1316 94.7235 74.1544 94.6663 74.1766C94.4139 74.2756 94.1615 74.375 93.907 74.4719C93.8398 74.4989 93.7726 74.5237 93.7043 74.5486C93.0646 74.7941 92.4195 75.0285 91.7708 75.2561C91.4258 75.3757 91.0808 75.4953 90.7336 75.6101C90.4447 75.7069 90.1569 75.8038 89.8653 75.8969C89.4594 76.0271 89.0525 76.1557 88.644 76.2795C88.2953 76.3858 87.9429 76.489 87.5894 76.5933C87.237 76.6943 86.8835 76.7938 86.53 76.8907C86.2057 76.9801 85.8776 77.0684 85.5511 77.1542C85.522 77.1611 85.4913 77.1701 85.4622 77.1764C85.1706 77.251 84.8806 77.3256 84.587 77.3981C84.4488 77.4309 84.3102 77.4648 84.17 77.4992C83.926 77.5579 83.6832 77.6161 83.4371 77.6722C83.3069 77.704 83.1762 77.7331 83.0424 77.7627C82.7725 77.8257 82.5021 77.8844 82.2317 77.9426C81.8682 78.022 81.5062 78.0966 81.1427 78.168C80.7903 78.2405 80.4394 78.3083 80.086 78.3739C80.014 78.3866 79.9394 78.4009 79.8653 78.4136C79.5626 78.4702 79.2605 78.5247 78.9583 78.5744C78.952 78.5765 78.9446 78.5765 78.9398 78.5787C78.6435 78.6305 78.3472 78.6776 78.0498 78.7247C78.0122 78.7316 77.9741 78.7385 77.9376 78.7432C77.7206 78.7771 77.5074 78.811 77.2904 78.8422C76.993 78.8877 76.6957 78.93 76.3983 78.9708C76.1395 79.0067 75.8797 79.0427 75.6204 79.0745C75.3093 79.1152 74.9987 79.1539 74.6875 79.1893C74.6827 79.1893 74.6753 79.1914 74.6716 79.1914C74.4594 79.2163 74.2478 79.239 74.0329 79.2618C73.4138 79.3295 72.7931 79.3883 72.1714 79.4417C71.8264 79.4713 71.4803 79.4983 71.1326 79.5211C71.1215 79.5232 71.112 79.5232 71.1056 79.5232C70.7294 79.5502 70.3548 79.5751 69.978 79.5952C69.688 79.6137 69.3965 79.6264 69.1065 79.6407C68.7678 79.6555 68.4297 79.6692 68.09 79.6809H68.0688C67.8826 79.6872 67.6974 79.6941 67.5132 79.6989C67.4767 79.6989 67.4402 79.701 67.4047 79.701C67.1179 79.7079 66.829 79.7148 66.5401 79.7169C66.1575 79.7238 65.7723 79.7259 65.3871 79.7259C65.1008 79.7259 64.814 79.7238 64.5288 79.7216C64.3494 79.719 64.1716 79.7169 63.9938 79.7121C63.717 79.71 63.4403 79.7031 63.1646 79.6941C62.5016 79.6767 61.8438 79.6518 61.1882 79.6179C61.1448 79.6158 61.0998 79.6137 61.057 79.6089C60.8538 79.5999 60.6511 79.5883 60.4484 79.5751C60.2701 79.5639 60.0923 79.5523 59.9145 79.5412C59.3642 79.5026 58.8144 79.4597 58.2688 79.41C58.1201 79.3989 57.9715 79.3856 57.8222 79.3703C57.5926 79.3496 57.3624 79.3269 57.1349 79.3047C56.919 79.2819 56.702 79.2592 56.4861 79.2322C56.1453 79.1962 55.8051 79.1554 55.4648 79.1131C55.3569 79.102 55.2463 79.0882 55.1378 79.0724C54.969 79.0496 54.7976 79.0274 54.6288 79.0046C54.0737 78.93 53.5197 78.8517 52.9699 78.7633C52.7331 78.7274 52.4959 78.6887 52.262 78.6506C52.2395 78.6464 52.2169 78.6411 52.194 78.6395C51.9484 78.5967 51.7028 78.5564 51.4573 78.5109C51.2048 78.4681 50.9542 78.4204 50.7043 78.376C50.0213 78.2495 49.3426 78.1146 48.6666 77.9675C48.4887 77.9315 48.3083 77.8939 48.1301 77.8532C48.1187 77.849 48.1097 77.8463 48.0985 77.8463C47.9724 77.8167 47.8439 77.7876 47.7176 77.7606C47.4698 77.704 47.2241 77.6452 46.9785 77.5891C46.7641 77.5373 46.5523 77.4875 46.3405 77.4357C46.2818 77.4225 46.2207 77.4071 46.1623 77.3907C45.9752 77.3457 45.7879 77.2981 45.6031 77.251C45.423 77.206 45.2427 77.1584 45.0648 77.1113C44.7243 77.0214 44.3838 76.9303 44.0434 76.8362C43.8361 76.7779 43.6266 76.7187 43.4171 76.6578C43.365 76.6451 43.3108 76.6287 43.2591 76.6134C43.0386 76.5499 42.8152 76.4843 42.594 76.4197C42.353 76.3472 42.1143 76.2747 41.8728 76.2001C41.634 76.1266 41.3951 76.0519 41.1561 75.9752L43.2213 67.7204L44.2129 63.7522L52.0072 32.571L55.668 17.9354L59.2381 3.64969L91.3018 25.0243C91.9711 22.1996 92.65 19.3969 93.2221 16.9599L110.23 30.2579Z" fill="#2F9FF8"/>
<path d="M138.792 31.1603C137.245 34.803 135.434 38.3079 133.381 41.6483C133.198 41.9458 133.012 42.2408 132.826 42.5358C132.758 42.6468 132.688 42.7553 132.619 42.8662C132.425 43.1673 132.231 43.4672 132.032 43.7671C131.803 44.117 131.57 44.4632 131.336 44.8083C130.896 45.4556 130.448 46.0932 129.99 46.7247C129.922 46.8186 129.855 46.9112 129.787 47.0038C129.6 47.2611 129.409 47.5183 129.22 47.7731C129.172 47.8341 129.127 47.895 129.082 47.9536C128.891 48.2096 128.695 48.4644 128.498 48.7191C128.453 48.7777 128.406 48.8386 128.358 48.8972C128.114 49.2129 127.864 49.5286 127.615 49.842C127.412 50.0943 127.208 50.3442 127.003 50.5929C126.907 50.7124 126.807 50.8319 126.709 50.9477C126.664 51.0049 126.618 51.0586 126.571 51.1135C126.411 51.3097 126.247 51.5023 126.082 51.6937C126.039 51.7437 125.998 51.7913 125.958 51.8388C125.746 52.0875 125.532 52.335 125.317 52.5789C125.277 52.6227 125.24 52.6678 125.198 52.713C124.923 53.0262 124.646 53.3357 124.364 53.6442C124.085 53.9527 123.801 54.2575 123.517 54.5623C123.23 54.866 122.944 55.1682 122.654 55.4656C122.405 55.7227 122.155 55.9788 121.903 56.2323C121.9 56.2339 121.895 56.2387 121.892 56.2434C121.767 56.3678 121.643 56.4911 121.518 56.6154C120.97 57.1589 120.415 57.6928 119.853 58.2198C119.615 58.4426 119.376 58.6633 119.135 58.8829C119.088 58.9278 119.04 58.9707 118.99 59.0157C118.751 59.2316 118.51 59.4485 118.27 59.6618C118.175 59.7486 118.077 59.8338 117.981 59.9179C117.719 60.147 117.458 60.3751 117.192 60.6016C116.876 60.8735 116.557 61.1408 116.236 61.4064C115.937 61.6578 115.632 61.9028 115.328 62.1488C115.28 62.188 115.233 62.2255 115.183 62.2636C114.89 62.5002 114.593 62.7351 114.296 62.9642C114.287 62.9743 114.275 62.9801 114.266 62.9902C113.943 63.2399 113.619 63.4876 113.292 63.7336C113.292 63.7336 113.292 63.7363 113.29 63.7363C112.957 63.986 112.623 64.2337 112.285 64.4797C111.975 64.7052 111.665 64.9285 111.354 65.1465C110.642 65.6513 109.923 66.1429 109.195 66.6228C108.845 66.8535 108.494 67.0816 108.142 67.3044C107.804 67.5203 107.464 67.7325 107.121 67.942C107.094 67.959 107.066 67.9748 107.042 67.9907C106.749 68.1711 106.454 68.3516 106.156 68.5273C106.059 68.5844 105.964 68.6405 105.87 68.6966C105.555 68.8834 105.234 69.0707 104.914 69.2538C104.107 69.7136 103.293 70.1619 102.469 70.5948C102.373 70.6471 102.278 70.6958 102.185 70.7434C102.04 70.8202 101.896 70.8948 101.75 70.9694C101.558 71.0678 101.365 71.1652 101.174 71.2615C100.721 71.4896 100.268 71.7129 99.8108 71.9309C99.1319 72.2552 98.4493 72.5722 97.7619 72.8781C97.4571 73.0135 97.1534 73.1463 96.8486 73.277C96.5157 73.422 96.1792 73.5612 95.8453 73.7014C95.5098 73.839 95.1733 73.9755 94.8357 74.1094C94.7796 74.1316 94.7235 74.1544 94.6663 74.1766C94.4139 74.2756 94.1615 74.375 93.907 74.4719C93.8398 74.4989 93.7726 74.5237 93.7043 74.5486C93.0646 74.7941 92.4195 75.0285 91.7708 75.2561C91.4258 75.3757 91.0808 75.4953 90.7336 75.6101C90.4447 75.7069 90.1569 75.8038 89.8653 75.8969C89.4594 76.0271 89.0525 76.1557 88.644 76.2795C88.2953 76.3858 87.9429 76.489 87.5894 76.5933C87.237 76.6943 86.8835 76.7938 86.53 76.8907C86.2057 76.9801 85.8776 77.0684 85.5511 77.1542C85.522 77.1611 85.4913 77.1701 85.4622 77.1764C85.1706 77.251 84.8806 77.3256 84.587 77.3981C84.4488 77.4309 84.3102 77.4648 84.17 77.4992C83.926 77.5579 83.6832 77.6161 83.4371 77.6722C83.3069 77.704 83.1762 77.7331 83.0424 77.7627C82.7725 77.8257 82.5021 77.8844 82.2317 77.9426C81.8682 78.022 81.5062 78.0966 81.1427 78.168C80.7903 78.2405 80.4394 78.3083 80.086 78.3739C80.014 78.3866 79.9394 78.4009 79.8653 78.4136C79.5626 78.4702 79.2605 78.5247 78.9583 78.5744C78.952 78.5765 78.9446 78.5765 78.9398 78.5787C78.6435 78.6305 78.3472 78.6776 78.0498 78.7247C78.0122 78.7316 77.9741 78.7385 77.9376 78.7432C77.7206 78.7771 77.5074 78.811 77.2904 78.8422C76.993 78.8877 76.6957 78.93 76.3983 78.9708C76.1395 79.0067 75.8797 79.0427 75.6204 79.0745C75.3093 79.1152 74.9987 79.1539 74.6875 79.1893C74.6827 79.1893 74.6753 79.1914 74.6716 79.1914C74.4594 79.2163 74.2478 79.239 74.0329 79.2618C73.4138 79.3295 72.7931 79.3883 72.1714 79.4417C71.8264 79.4713 71.4803 79.4983 71.1326 79.5211C71.1215 79.5232 71.112 79.5232 71.1056 79.5232C70.7294 79.5502 70.3548 79.5751 69.978 79.5952C69.688 79.6137 69.3965 79.6264 69.1065 79.6407C68.7678 79.6555 68.4297 79.6692 68.09 79.6809H68.0688C67.8826 79.6872 67.6974 79.6941 67.5132 79.6989C67.4767 79.6989 67.4402 79.701 67.4047 79.701C67.1179 79.7079 66.829 79.7148 66.5401 79.7169C66.1575 79.7238 65.7723 79.7259 65.3871 79.7259C65.1008 79.7259 64.814 79.7238 64.5288 79.7216C64.3494 79.719 64.1716 79.7169 63.9938 79.7121C63.717 79.71 63.4403 79.7031 63.1646 79.6941C62.5016 79.6767 61.8438 79.6518 61.1882 79.6179C61.1448 79.6158 61.0998 79.6137 61.057 79.6089C60.8538 79.5999 60.6511 79.5883 60.4484 79.5751C60.2701 79.5639 60.0923 79.5523 59.9145 79.5412C59.3642 79.5026 58.8144 79.4597 58.2688 79.41C58.1201 79.3989 57.9715 79.3856 57.8222 79.3703C57.5926 79.3496 57.3624 79.3269 57.1349 79.3047C56.919 79.2819 56.702 79.2592 56.4861 79.2322C56.1453 79.1962 55.8051 79.1554 55.4648 79.1131C55.3569 79.102 55.2463 79.0882 55.1378 79.0724C54.969 79.0496 54.7976 79.0274 54.6288 79.0046C54.0737 78.93 53.5197 78.8517 52.9699 78.7633C52.7331 78.7274 52.4959 78.6887 52.262 78.6506C52.2395 78.6464 52.2169 78.6411 52.194 78.6395C51.9484 78.5967 51.7028 78.5564 51.4573 78.5109C51.2048 78.4681 50.9542 78.4204 50.7043 78.376C50.0213 78.2495 49.3426 78.1146 48.6666 77.9675C48.4887 77.9315 48.3083 77.8939 48.1301 77.8532C48.1187 77.849 48.1097 77.8463 48.0985 77.8463C47.9724 77.8167 47.8439 77.7876 47.7176 77.7606C47.4698 77.704 47.2241 77.6452 46.9785 77.5891C46.7641 77.5373 46.5523 77.4875 46.3405 77.4357C46.2818 77.4225 46.2207 77.4071 46.1623 77.3907C45.9752 77.3457 45.7879 77.2981 45.6031 77.251C45.423 77.206 45.2427 77.1584 45.0648 77.1113C44.7243 77.0214 44.3838 76.9303 44.0434 76.8362C43.8361 76.7779 43.6266 76.7187 43.4171 76.6578C43.365 76.6451 43.3108 76.6287 43.2591 76.6134C43.0386 76.5499 42.8152 76.4843 42.594 76.4197C42.353 76.3472 42.1143 76.2747 41.8728 76.2001C41.634 76.1266 41.3951 76.0519 41.1561 75.9752C41.0141 75.9302 40.8721 75.8852 40.7303 75.8376C40.5114 75.7678 40.2932 75.6958 40.0743 75.6239C39.9684 75.5879 39.8625 75.5519 39.7563 75.5154C39.6143 75.4683 39.4726 75.4185 39.3305 75.3688C39.2247 75.3328 39.1184 75.2968 39.0128 75.2608C38.9518 75.2381 38.891 75.2179 38.8303 75.1952C38.8054 75.1862 38.7805 75.1772 38.7561 75.1687C38.4424 75.0576 38.1313 74.9449 37.8204 74.83C37.7983 74.8237 37.7778 74.8142 37.7575 74.8073C37.5838 74.7443 37.4079 74.6787 37.2345 74.6115C36.7543 74.4311 36.279 74.2464 35.8031 74.0548C35.6069 73.9776 35.413 73.8987 35.2193 73.8204C33.9864 73.3156 32.7671 72.7806 31.5655 72.215C31.2882 72.0869 31.0134 71.9567 30.7384 71.8239C29.8209 71.3799 28.9124 70.9191 28.0156 70.4412C27.7766 70.3132 27.5375 70.1841 27.2989 70.056C25.811 69.2443 24.3505 68.3881 22.9212 67.4859C22.5967 67.279 22.2722 67.0716 21.9498 66.862C21.6232 66.6498 21.2985 66.4339 20.9739 66.217C20.9219 66.1831 20.8724 66.1498 20.8206 66.1133C20.5072 65.9011 20.1961 65.6905 19.8872 65.4735C19.5472 65.237 19.2089 64.9978 18.8728 64.7565C18.4877 64.4797 18.1045 64.1993 17.7258 63.913C17.471 63.7241 17.2186 63.5352 16.9683 63.3389C16.9073 63.296 16.8468 63.2484 16.786 63.2024C16.5335 63.0071 16.2833 62.8134 16.0353 62.6134C15.3926 62.1097 14.7594 61.5943 14.1329 61.0677C14.0044 60.9614 13.8781 60.8529 13.7519 60.7418C13.5515 60.5735 13.3507 60.4021 13.1521 60.2285C13.0552 60.147 12.9607 60.0639 12.8661 59.9777C12.6901 59.8274 12.519 59.6739 12.3453 59.5178C12.2417 59.4279 12.1404 59.3363 12.0367 59.2437C11.7571 58.9913 11.4776 58.7368 11.2025 58.4791C11.1958 58.4743 11.189 58.4685 11.1844 58.4632C10.887 58.1865 10.592 57.9087 10.301 57.6298C10.0778 57.4176 9.85686 57.2028 9.63827 56.9895C9.46237 56.8176 9.28669 56.6445 9.11308 56.4704C9.05006 56.4091 8.9892 56.3471 8.92581 56.2836C8.75696 56.1154 8.58789 55.9434 8.42136 55.7714C8.1707 55.5169 7.92041 55.2608 7.67488 55.001C7.67488 55.001 7.67261 54.9988 7.67028 54.9988C4.88448 52.0778 2.3196 48.9422 0 45.6251L7.47433 50.1589C16.2448 55.4814 25.7298 59.4411 35.6069 61.9498C36.3417 62.1377 37.0814 62.316 37.8205 62.4864C38.5711 62.661 39.3216 62.8256 40.0745 62.9801C40.7125 63.1129 41.3498 63.24 41.988 63.3596C42.7295 63.4982 43.4716 63.63 44.2129 63.7522C49.8095 64.6772 55.499 65.1491 61.226 65.1491C62.0875 65.1491 62.9463 65.138 63.8051 65.1174H63.8073C65.3154 65.0798 66.816 65.0089 68.3157 64.9078C80.654 64.0691 92.65 61.0463 103.785 56.0358C104.666 55.641 105.543 55.2307 106.415 54.8074C115.17 50.5723 123.355 45.0874 130.71 38.4518L138.792 31.1603Z" fill="white"/>
<path d="M133.433 41.4741C133.416 41.5338 133.399 41.5899 133.379 41.6484C133.196 41.9459 133.011 42.2409 132.825 42.5359C132.757 42.6468 132.687 42.7554 132.617 42.8663C132.424 43.1674 132.23 43.4673 132.031 43.7672C131.802 44.1171 131.569 44.4633 131.335 44.8083C130.895 45.4557 130.446 46.0933 129.989 46.7248C129.921 46.8187 129.854 46.9113 129.785 47.0039C129.599 47.2612 129.408 47.5184 129.219 47.7732C129.171 47.8342 129.126 47.8951 129.081 47.9536C128.89 48.2096 128.693 48.4644 128.497 48.7192C128.452 48.7778 128.404 48.8387 128.357 48.8972C128.113 49.213 127.863 49.5287 127.613 49.842C127.411 50.0944 127.207 50.3443 127.002 50.593C126.906 50.7125 126.806 50.8319 126.707 50.9478C126.662 51.005 126.617 51.0587 126.569 51.1136C126.41 51.3098 126.245 51.5024 126.081 51.6938C126.038 51.7438 125.997 51.7914 125.956 51.8389C125.744 52.0876 125.531 52.3351 125.316 52.5789C125.276 52.6228 125.238 52.6679 125.197 52.713C124.921 53.0262 124.645 53.3358 124.363 53.6443C124.084 53.9528 123.8 54.2576 123.515 54.5624C123.229 54.8661 122.942 55.1683 122.652 55.4657C122.404 55.7228 122.154 55.9789 121.902 56.2324C121.899 56.234 121.894 56.2388 121.89 56.2435C121.766 56.3679 121.642 56.4912 121.516 56.6155C120.969 57.159 120.414 57.6929 119.852 58.2199C119.613 58.4427 119.374 58.6633 119.134 58.8829C119.086 58.9279 119.039 58.9708 118.989 59.0158C118.75 59.2317 118.509 59.4486 118.268 59.6619C118.174 59.7486 118.076 59.8338 117.979 59.918C117.718 60.1471 117.457 60.3752 117.191 60.6016C116.875 60.8736 116.555 61.1409 116.235 61.4065C115.935 61.6578 115.631 61.9028 115.327 62.1489C115.279 62.1881 115.232 62.2256 115.182 62.2637C114.889 62.5003 114.592 62.7352 114.294 62.9643C114.286 62.9744 114.274 62.9802 114.265 62.9903C113.942 63.24 113.618 63.4877 113.291 63.7337C113.291 63.7337 113.291 63.7364 113.288 63.7364C112.956 63.9861 112.622 64.2338 112.284 64.4798C111.974 64.7053 111.663 64.9286 111.353 65.1466C110.641 65.6514 109.921 66.143 109.193 66.6229C108.844 66.8536 108.493 67.0817 108.14 67.3045C107.803 67.5204 107.462 67.7326 107.12 67.9421C107.093 67.959 107.065 67.9749 107.041 67.9908C106.748 68.1712 106.453 68.3517 106.154 68.5274C106.058 68.5845 105.963 68.6406 105.869 68.6967C105.553 68.8835 105.233 69.0708 104.913 69.2539C104.106 69.7137 103.292 70.1619 102.468 70.5948V70.5974C102.372 70.645 102.277 70.6937 102.184 70.7435C102.039 70.8202 101.895 70.8948 101.749 70.9694C101.557 71.0678 101.364 71.1652 101.173 71.2615C100.72 71.4896 100.267 71.7129 99.8098 71.9309C99.1309 72.2553 98.4483 72.5722 97.7609 72.8781C97.4561 73.0135 97.1524 73.1464 96.8476 73.2771C96.5147 73.422 96.1782 73.5612 95.8443 73.7014C95.5088 73.839 95.1723 73.9755 94.8347 74.1094C94.7786 74.1316 94.7225 74.1544 94.6653 74.1766C94.4129 74.2756 94.1605 74.3751 93.906 74.4719C93.8388 74.4989 93.7716 74.5238 93.7033 74.5486C93.0636 74.7942 92.4185 75.0286 91.7698 75.2561C91.4248 75.3757 91.0798 75.4953 90.7326 75.6101C90.4437 75.7069 90.1559 75.8038 89.8643 75.8969C89.4584 76.0271 89.0515 76.1557 88.643 76.2795C88.2943 76.3859 87.9419 76.489 87.5884 76.5933C87.236 76.6944 86.8825 76.7938 86.529 76.8907C86.2047 76.9801 85.8766 77.0685 85.5501 77.1542C85.521 77.1611 85.4903 77.1701 85.4612 77.1764C85.1696 77.251 84.8796 77.3256 84.586 77.3981C84.4479 77.4309 84.3092 77.4648 84.169 77.4992C83.9251 77.5579 83.6822 77.6161 83.4361 77.6722C83.3059 77.704 83.1752 77.7331 83.0414 77.7627C82.7715 77.8257 82.5011 77.8844 82.2307 77.9426C81.8672 78.022 81.5052 78.0966 81.1417 78.1681C80.7893 78.2405 80.4384 78.3083 80.085 78.3739C80.013 78.3866 79.9384 78.4009 79.8643 78.4136C79.5616 78.4702 79.2595 78.5247 78.9573 78.5744C78.951 78.5766 78.9436 78.5766 78.9388 78.5787C78.6425 78.6305 78.3461 78.6776 78.0488 78.7247C78.0112 78.7316 77.9731 78.7385 77.9366 78.7432C77.7196 78.7771 77.5064 78.811 77.2894 78.8422C76.992 78.8877 76.6947 78.93 76.3973 78.9708C76.1385 79.0068 75.8787 79.0428 75.6194 79.0745C75.3083 79.1152 74.9977 79.1539 74.6865 79.1893C74.6818 79.1893 74.6743 79.1914 74.6706 79.1914C74.4584 79.2163 74.2468 79.2391 74.0319 79.2618C73.4128 79.3296 72.7921 79.3883 72.1704 79.4417C71.8254 79.4714 71.4793 79.4984 71.1316 79.5211C71.1205 79.5232 71.111 79.5232 71.1047 79.5232C70.7284 79.5502 70.3538 79.5751 69.977 79.5952C69.687 79.6137 69.3955 79.6264 69.1055 79.6407C68.7668 79.6555 68.4287 79.6693 68.089 79.6809H68.0678C67.8816 79.6873 67.6963 79.6941 67.5122 79.6989C67.4757 79.6989 67.4392 79.701 67.4037 79.701C67.1169 79.7079 66.828 79.7148 66.5391 79.7169C66.1565 79.7238 65.7713 79.7259 65.3861 79.7259C65.0998 79.7259 64.813 79.7238 64.5278 79.7217C64.3484 79.719 64.1706 79.7169 63.9928 79.7121C63.716 79.71 63.4393 79.7031 63.1636 79.6941C62.5006 79.6767 61.8428 79.6518 61.1872 79.6179C61.1438 79.6158 61.0988 79.6137 61.056 79.609C60.8528 79.6 60.6501 79.5883 60.4474 79.5751C60.2691 79.564 60.0913 79.5523 59.9135 79.5412C59.3632 79.5026 58.8134 79.4597 58.2678 79.41C58.1192 79.3989 57.9705 79.3856 57.8212 79.3703C57.5916 79.3497 57.3614 79.3269 57.1339 79.3047C56.918 79.2819 56.701 79.2592 56.4851 79.2322C56.1443 79.1962 55.8041 79.1555 55.4638 79.1131C55.3559 79.102 55.2453 79.0883 55.1368 79.0724C54.968 79.0496 54.7966 79.0274 54.6278 79.0046C54.0727 78.93 53.5187 78.8517 52.9689 78.7634C52.7321 78.7274 52.4949 78.6887 52.261 78.6506C52.2385 78.6464 52.2159 78.6411 52.193 78.6395C51.9474 78.5967 51.7018 78.5564 51.4563 78.5109C51.2038 78.4681 50.9532 78.4205 50.7033 78.376C50.0203 78.2495 49.3416 78.1146 48.6656 77.9675C48.4877 77.9315 48.3073 77.8939 48.1291 77.8532C48.1177 77.849 48.1087 77.8463 48.0975 77.8463C47.9714 77.8167 47.8429 77.7876 47.7166 77.7606C47.4688 77.704 47.2231 77.6453 46.9775 77.5892C46.7631 77.5373 46.5513 77.4876 46.3395 77.4357C46.2808 77.4225 46.2197 77.4071 46.1613 77.3907C45.9742 77.3457 45.7869 77.2981 45.6021 77.251C45.422 77.206 45.2417 77.1584 45.0638 77.1113C44.7233 77.0214 44.3828 76.9304 44.0424 76.8362C43.8351 76.778 43.6256 76.7187 43.4161 76.6578C43.364 76.6451 43.3098 76.6287 43.2581 76.6134C43.0376 76.5499 42.8142 76.4843 42.593 76.4197C42.352 76.3472 42.1133 76.2747 41.8718 76.2001C41.633 76.1266 41.3941 76.052 41.1551 75.9752C41.0131 75.9303 40.8711 75.8853 40.7293 75.8376C40.5104 75.7678 40.2922 75.6958 40.0733 75.6239L40.0732 75.6218C39.9674 75.5852 39.8615 75.5519 39.7553 75.5154C39.6133 75.4683 39.4716 75.4186 39.3295 75.3688C39.2237 75.3328 39.1173 75.2947 39.0117 75.2582C38.9508 75.2381 38.8898 75.2154 38.829 75.1953V75.1931C38.8041 75.1863 38.7792 75.1773 38.7548 75.1688C38.4411 75.0577 38.1301 74.945 37.8192 74.8301C37.797 74.8238 37.7766 74.8143 37.7562 74.8074C37.5825 74.7444 37.4066 74.6788 37.2332 74.6116C36.753 74.4312 36.2777 74.2465 35.8019 74.0549C35.6056 73.9777 35.4117 73.8988 35.2181 73.8205C33.9852 73.3157 32.7658 72.7807 31.5642 72.215C31.2869 72.087 31.0121 71.9568 30.7371 71.824C29.8196 71.38 28.9111 70.9191 28.0143 70.4413C27.7754 70.3133 27.5362 70.1841 27.2976 70.0561C25.8097 69.2444 24.3492 68.3882 22.9199 67.486C22.5954 67.2791 22.271 67.0716 21.9485 66.8621C21.6219 66.6499 21.2973 66.434 20.9726 66.2171C20.9207 66.1832 20.8711 66.1499 20.8193 66.1133C20.506 65.9012 20.1948 65.6905 19.8859 65.4736C19.5459 65.2371 19.2076 64.9979 18.8715 64.7566C18.4864 64.4798 18.1032 64.1994 17.7246 63.9131C17.4698 63.7242 17.2173 63.5353 16.967 63.339C16.9061 63.2961 16.8455 63.2485 16.7847 63.2024C16.5323 63.0072 16.282 62.8135 16.034 62.6135C15.3913 62.1097 14.7581 61.5943 14.1316 61.0678C14.0031 60.9615 13.8768 60.853 13.7507 60.7419C13.5502 60.5736 13.3495 60.4022 13.1509 60.2286C13.0539 60.1471 12.9594 60.064 12.8649 59.9778C12.6888 59.8275 12.5178 59.674 12.3441 59.5179C12.2404 59.428 12.1391 59.3364 12.0355 59.2438C11.7558 58.9914 11.4763 58.7369 11.2012 58.4792C11.1945 58.4744 11.1877 58.4686 11.1831 58.4633C10.8858 58.1866 10.5907 57.9088 10.2997 57.6299C10.0765 57.4177 9.85559 57.2029 9.637 56.9896C9.46111 56.8176 9.28543 56.6446 9.11181 56.4705C9.04879 56.4091 8.98793 56.3472 8.92454 56.2837C8.75569 56.1155 8.58662 55.9435 8.4201 55.7715C8.16943 55.517 7.91914 55.2609 7.67362 55.0011C16.6201 60.1291 26.3707 64.0131 36.6923 66.4134C37.0663 66.5012 37.4427 66.5875 37.8192 66.6705C38.5675 66.8351 39.3181 66.9923 40.0732 67.1426C40.3796 67.2045 40.6863 67.2653 40.995 67.3214C41.7345 67.4643 42.4761 67.5971 43.2199 67.7204C47.8834 68.5078 52.6485 68.992 57.4947 69.1539H57.4974C58.7346 69.1989 59.9765 69.22 61.2248 69.22C61.3422 69.22 61.4618 69.22 61.5788 69.2174C76.0835 69.1724 89.9167 66.262 102.537 61.0223C103.411 60.6593 104.279 60.2847 105.14 59.8995C115.547 55.2561 125.082 49.0106 133.433 41.4741Z" fill="#95D0FF"/>
</svg>
